<svg width="107" height="15" viewBox="0 0 107 15" fill="none" xmlns="http://www.w3.org/2000/svg">
<g id="rating">
<path id="Star_1" fill-rule="evenodd" clip-rule="evenodd" d="M7.5 11.25L3.09161 13.5676L3.93354 8.65881L0.367076 5.18237L5.29581 4.46619L7.5 0L9.7042 4.46619L14.6329 5.18237L11.0665 8.65881L11.9084 13.5676L7.5 11.25Z" fill="#C271FF"/>
<path id="Star_2" fill-rule="evenodd" clip-rule="evenodd" d="M30.5 11.25L26.0916 13.5676L26.9335 8.65881L23.3671 5.18237L28.2958 4.46619L30.5 0L32.7042 4.46619L37.6329 5.18237L34.0665 8.65881L34.9084 13.5676L30.5 11.25Z" fill="#C271FF"/>
<path id="Star_3" fill-rule="evenodd" clip-rule="evenodd" d="M53.5 11.25L49.0916 13.5676L49.9335 8.65881L46.3671 5.18237L51.2958 4.46619L53.5 0L55.7042 4.46619L60.6329 5.18237L57.0665 8.65881L57.9084 13.5676L53.5 11.25Z" fill="#C271FF"/>
<path id="Star_4" fill-rule="evenodd" clip-rule="evenodd" d="M76.5 11.25L72.0916 13.5676L72.9335 8.65881L69.3671 5.18237L74.2958 4.46619L76.5 0L78.7042 4.46619L83.6329 5.18237L80.0665 8.65881L80.9084 13.5676L76.5 11.25Z" fill="#C271FF"/>
<path id="Star_5" fill-rule="evenodd" clip-rule="evenodd" d="M99.5 11.25L95.0916 13.5676L95.9335 8.65881L92.3671 5.18237L97.2958 4.46619L99.5 0L101.704 4.46619L106.633 5.18237L103.066 8.65881L103.908 13.5676L99.5 11.25Z" fill="#D8D8D8"/>
</g>
</svg>
